<mxfile host="Electron" agent="Mozilla/5.0 (Windows NT 10.0; Win64; x64) AppleWebKit/537.36 (KHTML, like Gecko) draw.io/28.0.4 Chrome/138.0.7204.97 Electron/37.2.1 Safari/537.36" version="28.0.4">
  <diagram name="Page-1" id="jR7RQIqnCT3p9xRug1BX">
    <mxGraphModel dx="925" dy="467" grid="1" gridSize="10" guides="1" tooltips="1" connect="1" arrows="1" fold="1" page="1" pageScale="1" pageWidth="850" pageHeight="1100" math="0" shadow="0">
      <root>
        <mxCell id="0" />
        <mxCell id="1" parent="0" />
        <mxCell id="n8z5ZexXxRTJiRlgUfs0-1" value="" style="rounded=0;whiteSpace=wrap;html=1;" vertex="1" parent="1">
          <mxGeometry x="190" y="145" width="1630" height="880" as="geometry" />
        </mxCell>
        <mxCell id="n8z5ZexXxRTJiRlgUfs0-21" value="" style="group" vertex="1" connectable="0" parent="1">
          <mxGeometry x="220" y="170" width="969" height="510" as="geometry" />
        </mxCell>
        <mxCell id="n8z5ZexXxRTJiRlgUfs0-3" value="" style="rounded=0;whiteSpace=wrap;html=1;" vertex="1" parent="n8z5ZexXxRTJiRlgUfs0-21">
          <mxGeometry y="70" width="400" height="90" as="geometry" />
        </mxCell>
        <mxCell id="n8z5ZexXxRTJiRlgUfs0-6" value="Session Core Subdomain" style="text;html=1;align=center;verticalAlign=middle;whiteSpace=wrap;rounded=0;" vertex="1" parent="n8z5ZexXxRTJiRlgUfs0-21">
          <mxGeometry x="103.13" y="40" width="188.75" height="30" as="geometry" />
        </mxCell>
        <mxCell id="n8z5ZexXxRTJiRlgUfs0-7" value="- Session&lt;div&gt;- Rooms&lt;/div&gt;&lt;div&gt;- Session Description (Value Object)&lt;/div&gt;" style="text;html=1;whiteSpace=wrap;overflow=hidden;rounded=0;" vertex="1" parent="n8z5ZexXxRTJiRlgUfs0-21">
          <mxGeometry x="11" y="80" width="209" height="70" as="geometry" />
        </mxCell>
        <mxCell id="n8z5ZexXxRTJiRlgUfs0-12" value="" style="rounded=0;whiteSpace=wrap;html=1;" vertex="1" parent="n8z5ZexXxRTJiRlgUfs0-21">
          <mxGeometry y="250" width="400" height="90" as="geometry" />
        </mxCell>
        <mxCell id="n8z5ZexXxRTJiRlgUfs0-13" value="Mailing Service" style="text;html=1;align=center;verticalAlign=middle;whiteSpace=wrap;rounded=0;" vertex="1" parent="n8z5ZexXxRTJiRlgUfs0-21">
          <mxGeometry x="103.13" y="220" width="188.75" height="30" as="geometry" />
        </mxCell>
        <mxCell id="n8z5ZexXxRTJiRlgUfs0-14" value="- Dealing With patients for booking their Sessions and updates on that Sessions" style="text;html=1;whiteSpace=wrap;overflow=hidden;rounded=0;" vertex="1" parent="n8z5ZexXxRTJiRlgUfs0-21">
          <mxGeometry x="11" y="260" width="378" height="70" as="geometry" />
        </mxCell>
        <mxCell id="n8z5ZexXxRTJiRlgUfs0-15" value="&lt;h1 style=&quot;margin-top: 0px;&quot;&gt;&lt;font style=&quot;font-size: 14px;&quot;&gt;Session Status&lt;/font&gt;&lt;/h1&gt;&lt;div&gt;&lt;font style=&quot;font-size: 14px;&quot;&gt;- Pending&lt;/font&gt;&lt;/div&gt;&lt;div&gt;&lt;font style=&quot;font-size: 14px;&quot;&gt;- Set&lt;/font&gt;&lt;/div&gt;&lt;div&gt;&lt;font style=&quot;font-size: 14px;&quot;&gt;- Updated&lt;/font&gt;&lt;/div&gt;&lt;div&gt;&lt;font style=&quot;font-size: 14px;&quot;&gt;- Started&lt;/font&gt;&lt;/div&gt;&lt;div&gt;&lt;font style=&quot;font-size: 14px;&quot;&gt;- Finished&lt;/font&gt;&lt;/div&gt;&lt;div&gt;&lt;font style=&quot;font-size: 14px;&quot;&gt;- Deleted&lt;/font&gt;&lt;/div&gt;" style="text;html=1;whiteSpace=wrap;overflow=hidden;rounded=0;" vertex="1" parent="n8z5ZexXxRTJiRlgUfs0-21">
          <mxGeometry x="479" width="190" height="170" as="geometry" />
        </mxCell>
        <mxCell id="n8z5ZexXxRTJiRlgUfs0-17" value="" style="rounded=0;whiteSpace=wrap;html=1;" vertex="1" parent="n8z5ZexXxRTJiRlgUfs0-21">
          <mxGeometry y="420" width="400" height="90" as="geometry" />
        </mxCell>
        <mxCell id="n8z5ZexXxRTJiRlgUfs0-18" value="Clinic Administration" style="text;html=1;align=center;verticalAlign=middle;whiteSpace=wrap;rounded=0;" vertex="1" parent="n8z5ZexXxRTJiRlgUfs0-21">
          <mxGeometry x="103.13" y="390" width="188.75" height="30" as="geometry" />
        </mxCell>
        <mxCell id="n8z5ZexXxRTJiRlgUfs0-19" value="- Admin&lt;div&gt;- Rooms (From Admin prespective not session)&lt;/div&gt;&lt;div&gt;- Doctor (Doctor Description and history)&lt;/div&gt;&lt;div&gt;&lt;br&gt;&lt;/div&gt;" style="text;html=1;whiteSpace=wrap;overflow=hidden;rounded=0;" vertex="1" parent="n8z5ZexXxRTJiRlgUfs0-21">
          <mxGeometry x="8.5" y="430" width="378" height="70" as="geometry" />
        </mxCell>
        <mxCell id="n8z5ZexXxRTJiRlgUfs0-20" value="&lt;h1 style=&quot;margin-top: 0px;&quot;&gt;&lt;font style=&quot;font-size: 14px;&quot;&gt;Session Financial Status&lt;/font&gt;&lt;/h1&gt;&lt;div&gt;&lt;font style=&quot;font-size: 14px;&quot;&gt;- Unpaid&lt;br&gt;&lt;/font&gt;&lt;/div&gt;&lt;div&gt;&lt;font style=&quot;font-size: 14px;&quot;&gt;- Paid&lt;/font&gt;&lt;/div&gt;" style="text;html=1;whiteSpace=wrap;overflow=hidden;rounded=0;" vertex="1" parent="n8z5ZexXxRTJiRlgUfs0-21">
          <mxGeometry x="689" width="280" height="170" as="geometry" />
        </mxCell>
      </root>
    </mxGraphModel>
  </diagram>
</mxfile>
